# AST/ASF file generated using VICON BodyLanguage
# -----------------------------------------------
:version 1.10
:name VICON
:units
  mass 1.0
  length 0.45
  angle deg
:documentation
   .ast/.asf automatically generated from VICON data using
   VICON BodyBuilder and BodyLanguage model FoxedUp or BRILLIANT.MOD
:root
   order TX TY TZ RX RY RZ
   axis XYZ
   position 0 0 0  
   orientation 0 0 0 
:bonedata
  begin
     id 1 
     name lhipjoint
     direction 0.624716 -0.669793 0.401383 
     length 2.38238 
     axis 0 0 0  XYZ
  end
  begin
     id 2 
     name lfemur
     direction 0.34202 -0.939693 0  
     length 6.4574  
     axis 0 0 20  XYZ
    dof rx ry rz
    limits (-160.0 20.0)
           (-70.0 70.0)
           (-60.0 70.0)
  end
  begin
     id 3 
     name ltibia
     direction 0.34202 -0.939693 0   
     length 7.68739   
     axis 0 0 20   XYZ
    dof rx
    limits (-10.0 170.0)
  end
  begin
     id 4 
     name lfoot
     direction 0.0681309 -0.187188 0.979959   
     length 2.46615   
     axis -90 7.62852e-016 20   XYZ
    dof rx rz
    limits (-45.0 90.0)
           (-70.0 20.0)
  end
  begin
     id 5 
     name ltoes
     direction 1.53566e-011 -4.21819e-011 1   
     length 1.2376   
     axis -90 7.62852e-016 20   XYZ
    dof rx
    limits (-90.0 20.0)
  end
  begin
     id 6 
     name rhipjoint
     direction -0.644473 -0.655875 0.393043   
     length 2.43293  
     axis 0 0 0  XYZ 
  end
  begin
     id 7 
     name rfemur
     direction -0.34202 -0.939693 0   
     length 6.7025   
     axis 0 0 -20   XYZ
    dof rx ry rz
    limits (-160.0 20.0)
           (-70.0 70.0)
           (-70.0 60.0)
  end
  begin
     id 8 
     name rtibia
     direction -0.34202 -0.939693 0   
     length 7.80547   
     axis 0 0 -20   XYZ
    dof rx
    limits (-10.0 170.0)
 end
 begin
     id 9 
     name rfoot
     direction -0.0756734 -0.207911 0.975216   
     length 2.40315  
     axis -90 -7.62852e-016 -20   XYZ
    dof rx rz
    limits (-45.0 90.0)
           (-20.0 70.0)
  end
  begin
     id 10 
     name rtoes
     direction -1.5353e-011 -4.21879e-011 1   
     length 1.20477   
     axis -90 -7.62852e-016 -20   XYZ
    dof rx
    limits (-90.0 20.0)
  end
  begin
     id 11 
     name lowerback
     direction 0.0160353 0.987463 -0.157037   
     length 2.18572   
     axis 0 0 0   XYZ
    dof rx ry rz
    limits (-20.0 45.0)
           (-30.0 30.0)
           (-30.0 30.0)
  end
  begin
     id 12 
     name upperback
     direction -0.00499661 0.999756 0.0215076   
     length 2.18016   
     axis 0 0 0   XYZ
    dof rx ry rz
    limits (-20.0 45.0)
           (-30.0 30.0)
           (-30.0 30.0)
  end
  begin
     id 13 
     name thorax
     direction -0.00921346 0.995333 0.0960619   
     length 2.24923   
     axis 0 0 0   XYZ
    dof rx ry rz
    limits (-20.0 45.0)
           (-30.0 30.0)
           (-30.0 30.0)
  end
  begin
     id 14 
     name lowerneck
     direction 0.0274184 0.991181 0.12965   
     length 1.70911   
     axis 0 0 0   XYZ
    dof rx ry rz
    limits (-20.0 45.0)
           (-30.0 30.0)
           (-30.0 30.0)
  end
  begin
     id 15 
     name upperneck
     direction 0.0015627 0.999959 -0.00893559   
     length 1.69312   
     axis 0 0 0   XYZ
    dof rx ry rz
    limits (-20.0 45.0)
           (-30.0 30.0)
           (-30.0 30.0)
  end
  begin
     id 16
     name head
     direction -0.00230242 0.999856 -0.0168327  
     length 1.80241  
     axis 0 0 0   XYZ
    dof rx ry rz
    limits (-20.0 45.0)
           (-30.0 30.0)
           (-30.0 30.0)
  end
  begin
     id 17 
     name lclavicle
     direction 0.955523 0.290741 -0.0494489  
     length 3.84275  
     axis 0 0 0   XYZ
    dof ry rz
    limits (-20.0 10.0)
           (0.0 20.0)
  end
  begin
     id 18 
     name lhumerus
     direction 1 -4.48967e-011 -3.18382e-028   
     length 5.17714   
     axis 180 -30 -90   XYZ
    dof rx ry rz
    limits (-60.0 90.0)
           (-90.0 90.0)
           (-90.0 90.0)
  end
  begin
     id 19
     name lradius
     direction 1 -4.48968e-011 -2.22911e-027   
     length 3.43679   
     axis 180 -30 -90   XYZ
    dof rx
    limits (-10.0 170.0)
  end
  begin
     id 20
     name lwrist
     direction 1 -4.48951e-011 -6.32245e-027   
     length 1.7184   
     axis 3.57107e-015 90 90   XYZ
    dof ry
    limits (-180.0 0.0)
 end
  begin
     id 21 
     name lhand
     direction 1 -4.48924e-011 -1.26431e-026   
     length 0.573117   
     axis 8.06912e-015 90 90   XYZ
    dof rx rz
    limits (-90.0 90.0)
           (-45.0 45.0)
  end
  begin
     id 22 
     name lfingers
     direction 1 -4.49001e-011 -2.52965e-026   
     length 0.462062   
     axis 1.61381e-014 90 90   XYZ
    dof rx
    limits (0.0 90.0)
  end
  begin
     id 23
     name lthumb
     direction 0.707107 -6.35008e-011 0.707107   
     length 0.663431   
     axis -90 45 -1.62303e-014   XYZ
    dof rx rz
    limits (-45.0 45.0)
           (-45.0 45.0)
  end
  begin
     id 24 
     name rclavicle
     direction -0.963917 0.256881 -0.0698287   
     length 3.73057  
     axis 0 0 0   XYZ 
    dof ry rz
    limits (-10.0 20.0)
           (-20.0 0.0)
  end
  begin
     id 25 
     name rhumerus
     direction -1 -4.48962e-011 -2.73982e-027  
     length 5.23908   
     axis 180 30 90   XYZ
    dof rx ry rz
    limits (-90.0 60.0)
           (-90.0 90.0)
           (-90.0 90.0)
  end
  begin
     id 26 
     name rradius
     direction -1 -4.48968e-011 -4.33218e-027   
     length 3.46485   
     axis 180 30 90   XYZ
    dof rx
    limits (-10.0 170.0)
  end
  begin
     id 27 
     name rwrist
     direction -1 -4.48989e-011 -6.32372e-027   
     length 1.73243   
     axis 3.57107e-015 -90 -90   XYZ
    dof ry
    limits (-180.0 0.0)
  end
  begin
     id 28
     name rhand
     direction -1 -4.48948e-011 -1.26448e-026   
     length 0.608752   
     axis 8.06912e-015 -90 -90   XYZ
    dof rx rz
    limits (-90.0 90.0)
           (-45.0 45.0)
  end
  begin
     id 29
     name rfingers
     direction -1 -4.48962e-011 -2.52913e-026   
     length 0.490792   
     axis 1.61381e-014 -90 -90   XYZ
    dof rx
    limits (0.0 90.0)
  end
  begin
     id 30
     name rthumb
     direction -0.707107 -6.34878e-011 0.707107   
     length 0.704682   
     axis -90 -45 1.62303e-014   XYZ
    dof rx rz
    limits (-45.0 45.0)
           (-45.0 45.0)
  end
:hierarchy
  begin
    root lhipjoint rhipjoint lowerback
    lhipjoint lfemur
    lfemur ltibia
    ltibia lfoot
    lfoot ltoes
    rhipjoint rfemur
    rfemur rtibia
    rtibia rfoot
    rfoot rtoes
    lowerback upperback
    upperback thorax
    thorax lowerneck lclavicle rclavicle
    lowerneck upperneck
    upperneck head
    lclavicle lhumerus
    lhumerus lradius
    lradius lwrist
    lwrist lhand lthumb
    lhand lfingers
    rclavicle rhumerus
    rhumerus rradius
    rradius rwrist
    rwrist rhand rthumb
    rhand rfingers
  end

#!OML:ASF G:\JayActor3\Patient Classification 1\Patient 1\Session 6\male.ASF
:FULLY-SPECIFIED
:DEGREES
177
root 47.2809 15.5565 12.8955 -174.179 -25.6454 -182.048
lowerback 2.3353 -0.971663 -2.12043
upperback 2.95276 -1.40868 -0.890917
thorax 1.74695 -0.778905 0.283093
lowerneck -3.5615 2.73056 2.91695
upperneck -5.81791 3.39773 2.16334
head -1.18422 1.49774 0.187271
rclavicle -5.66536e-015 -8.54774e-015
rhumerus -39.4867 -19.8107 -74.8757
rradius 19.4428
rwrist 16.0798
rhand -16.8938 -9.39117
rfingers 7.12502
rthumb 9.33782 -39.1644
lclavicle -5.66536e-015 -8.54774e-015
lhumerus -23.237 -3.00037 87.1324
lradius 31.6792
lwrist 19.1795
lhand -18.8483 13.6466
lfingers 7.12502
lthumb 7.45162 43.4954
rfemur -46.2682 4.25134 17.2514
rtibia 34.6439
rfoot -21.4812 -15.5757
rtoes -0.315058
lfemur 19.4212 13.59 -23.2244
ltibia -1.59028e-014
lfoot -21.0311 14.7877
ltoes -11.2228
178
root 47.239 15.541 12.7844 -174.145 -25.6271 -182.112
lowerback 2.34755 -0.977693 -2.11549
upperback 2.96494 -1.41747 -0.874501
thorax 1.75309 -0.783708 0.297281
lowerneck -3.5807 2.71889 2.88609
upperneck -5.83685 3.38126 2.14596
head -1.18716 1.48982 0.187103
rclavicle -9.59136e-015 1.55052e-014
rhumerus -39.6971 -19.923 -74.7292
rradius 19.3532
rwrist 16.2311
rhand -16.7169 -9.35802
rfingers 7.12502
rthumb 9.50847 -39.1235
lclavicle -9.59136e-015 1.55052e-014
lhumerus -23.1273 -3.08054 87.1958
lradius 31.765
lwrist 19.1731
lhand -18.8709 13.629
lfingers 7.12502
lthumb 7.42977 43.4785
rfemur -46.2669 4.29514 17.0348
rtibia 34.3569
rfoot -21.2301 -15.7745
rtoes -0.129141
lfemur 19.8987 13.5026 -23.1332
ltibia -4.77083e-014
lfoot -20.9224 14.7777
ltoes -12.2119
179
root 47.1973 15.5263 12.67 -174.134 -25.6044 -182.133
lowerback 2.36174 -0.980746 -2.0774
upperback 2.97628 -1.42179 -0.84728
thorax 1.75661 -0.785575 0.304048
lowerneck -3.60116 2.71008 2.86261
upperneck -5.85547 3.36818 2.12644
head -1.18962 1.48342 0.18511
rclavicle -3.1408e-014 1.39149e-015
rhumerus -39.8972 -19.9685 -74.6355
rradius 19.3083
rwrist 16.3219
rhand -16.5339 -9.31526
rfingers 7.12502
rthumb 9.68511 -39.0726
lclavicle -3.1408e-014 1.39149e-015
lhumerus -23.0321 -3.13352 87.2558
lradius 31.8059
lwrist 19.1558
lhand -18.9019 13.621
lfingers 7.12502
lthumb 7.3998 43.4716
rfemur -46.2356 4.34244 16.8823
rtibia 34.1585
rfoot -20.9635 -15.9815
rtoes 0.0580506
lfemur 20.384 13.4191 -22.9893
ltibia 3.18055e-014
lfoot -20.7628 14.7951
ltoes -13.2974
180
root 47.1556 15.5125 12.5519 -174.136 -25.5705 -182.135
lowerback 2.37351 -0.981704 -2.02789
upperback 2.9866 -1.42301 -0.814611
thorax 1.76023 -0.785642 0.30996
lowerneck -3.61845 2.70384 2.84681
upperneck -5.87337 3.3583 2.09859
head -1.19209 1.47864 0.179283
rclavicle -8.84592e-015 -1.86858e-014
rhumerus -40.0842 -19.9316 -74.6031
rradius 19.3057
rwrist 16.3448
rhand -16.3652 -9.26397
rfingers 7.12502
rthumb 9.84781 -39.0137
lclavicle -8.84592e-015 -1.86858e-014
lhumerus -22.9549 -3.155 87.3134
lradius 31.8051
lwrist 19.1363
lhand -18.9498 13.6049
lfingers 7.12502
lthumb 7.35365 43.4571
rfemur -46.1757 4.39194 16.7718
rtibia 34.0528
rfoot -20.6968 -16.1861
rtoes 0.281454
lfemur 20.8816 13.3449 -22.8195
ltibia -1.90833e-014
lfoot -20.5433 14.8325
ltoes -14.4658
181
root 47.1141 15.4998 12.43 -174.141 -25.5251 -182.133
lowerback 2.37696 -0.977972 -1.9775
upperback 2.99486 -1.41763 -0.785572
thorax 1.76613 -0.782306 0.311473
lowerneck -3.63637 2.70008 2.85257
upperneck -5.89585 3.35059 2.06616
head -1.19544 1.47424 0.168539
rclavicle 9.51682e-015 -1.53064e-014
rhumerus -40.2598 -19.8368 -74.6294
rradius 19.3393
rwrist 16.2994
rhand -16.2115 -9.21841
rfingers 7.12502
rthumb 9.99614 -38.961
lclavicle 9.51682e-015 -1.53064e-014
lhumerus -22.8952 -3.15229 87.3578
lradius 31.7646
lwrist 19.1001
lhand -18.9877 13.5942
lfingers 7.12502
lthumb 7.31707 43.4477
rfemur -46.0931 4.4314 16.6987
rtibia 34.0404
rfoot -20.4121 -16.4137
rtoes 0.46736
lfemur 21.388 13.2781 -22.6365
ltibia 2.54444e-014
lfoot -20.2603 14.8763
ltoes -15.6972
182
root 47.0727 15.4888 12.304 -174.14 -25.4712 -182.136
lowerback 2.36973 -0.97558 -1.94109
upperback 2.99825 -1.41369 -0.754106
thorax 1.77346 -0.779834 0.323131
lowerneck -3.65633 2.70409 2.86254
upperneck -5.9119 3.35287 2.02633
head -1.19621 1.4751 0.154932
rclavicle 2.69602e-014 1.78906e-015
rhumerus -40.4191 -19.6957 -74.6898
rradius 19.3955
rwrist 16.2138
rhand -16.073 -9.17305
rfingers 7.12502
rthumb 10.1297 -38.9092
lclavicle 2.69602e-014 1.78906e-015
lhumerus -22.8647 -3.10234 87.3979
lradius 31.6948
lwrist 19.0627
lhand -19.0294 13.5818
lfingers 7.12502
lthumb 7.2768 43.4367
rfemur -45.9923 4.46015 16.6511
rtibia 34.1242
rfoot -20.1223 -16.67
rtoes 0.686118
lfemur 21.9012 13.2149 -22.4509
ltibia 1.27222e-014
lfoot -19.917 14.9097
ltoes -16.9504
183
root 47.0311 15.4793 12.1739 -174.137 -25.4104 -182.14
lowerback 2.35216 -0.971235 -1.90498
upperback 2.99664 -1.40664 -0.725398
thorax 1.78132 -0.775627 0.33197
lowerneck -3.68179 2.71165 2.88525
upperneck -5.91955 3.35908 1.98419
head -1.19317 1.4779 0.138693
rclavicle 7.70539e-014 2.78299e-015
rhumerus -40.5697 -19.5344 -74.7776
rradius 19.4707
rwrist 16.0949
rhand -15.9524 -9.14092
rfingers 7.12502
rthumb 10.2461 -38.8714
lclavicle 7.70539e-014 2.78299e-015
lhumerus -22.8733 -3.01141 87.4286
lradius 31.602
lwrist 19.0015
lhand -19.0752 13.5528
lfingers 7.12502
lthumb 7.23255 43.4092
rfemur -45.8684 4.46767 16.6409
rtibia 34.3009
rfoot -19.8161 -16.9681
rtoes 0.935561
lfemur 22.4267 13.1547 -22.2603
ltibia 8.26944e-014
lfoot -19.4973 14.9481
ltoes -18.2788
184
root 46.9895 15.4714 12.0393 -174.115 -25.3483 -182.166
lowerback 2.31474 -0.969585 -1.89451
upperback 2.98841 -1.40262 -0.700864
thorax 1.7941 -0.773228 0.350564
lowerneck -3.7156 2.72293 2.9153
upperneck -5.90845 3.36959 1.9328
head -1.18256 1.48353 0.118693
rclavicle -2.26366e-014 2.83268e-014
rhumerus -40.7063 -19.356 -74.8842
rradius 19.5557
rwrist 15.9555
rhand -15.8576 -9.11273
rfingers 7.12502
rthumb 10.3375 -38.8386
lclavicle -2.26366e-014 2.83268e-014
lhumerus -22.9231 -2.8695 87.4506
lradius 31.4879
lwrist 18.9284
lhand -19.144 13.4938
lfingers 7.12502
lthumb 7.16612 43.3524
rfemur -45.7287 4.44891 16.645
rtibia 34.5656
rfoot -19.4985 -17.3141
rtoes 1.26618
lfemur 22.9551 13.0901 -22.0883
ltibia 1.90833e-014
lfoot -19.0102 14.98
ltoes -19.6169
185
root 46.9472 15.4647 11.9001 -174.096 -25.2872 -182.193
lowerback 2.26473 -0.972071 -1.8845
upperback 2.97457 -1.4035 -0.67512
thorax 1.80831 -0.773092 0.370501
lowerneck -3.76037 2.73997 2.93946
upperneck -5.86674 3.38795 1.88466
head -1.16068 1.49431 0.101044
rclavicle 3.44643e-014 4.87022e-015
rhumerus -40.8345 -19.1606 -75.0024
rradius 19.6498
rwrist 15.7896
rhand -15.7831 -9.09137
rfingers 7.12502
rthumb 10.4094 -38.8137
lclavicle 3.44643e-014 4.87022e-015
lhumerus -23.0214 -2.6776 87.4639
lradius 31.3559
lwrist 18.8384
lhand -19.1885 13.4402
lfingers 7.12502
lthumb 7.12319 43.3003
rfemur -45.554 4.39327 16.6936
rtibia 34.909
rfoot -19.1895 -17.6954
rtoes 1.63726
lfemur 23.4982 13.0203 -21.909
ltibia -1.59028e-014
lfoot -18.4642 14.9933
ltoes -20.8907
186
root 46.9041 15.4596 11.7561 -174.085 -25.2352 -182.21
lowerback 2.19681 -0.980855 -1.85871
upperback 2.95999 -1.41195 -0.64932
thorax 1.83157 -0.77637 0.38133
lowerneck -3.81388 2.75955 2.96264
upperneck -5.80061 3.40963 1.83456
head -1.12971 1.50771 0.083302
rclavicle -4.25896e-014 1.26228e-014
rhumerus -40.953 -18.9707 -75.1253
rradius 19.7458
rwrist 15.6287
rhand -15.735 -9.08102
rfingers 7.12502
rthumb 10.4558 -38.801
lclavicle -4.25896e-014 1.26228e-014
lhumerus -23.162 -2.44422 87.4642
lradius 31.208
lwrist 18.7457
lhand -19.2367 13.3785
lfingers 7.12502
lthumb 7.07669 43.2402
rfemur -45.3386 4.27811 16.8093
rtibia 35.3226
rfoot -18.888 -18.1162
rtoes 1.96778
lfemur 24.0584 12.9381 -21.7123
ltibia 1.59028e-014
lfoot -17.8677 14.9822
ltoes -22.0498
187
root 46.8599 15.4566 11.6071 -174.095 -25.1969 -182.207
lowerback 2.11961 -0.995294 -1.80625
upperback 2.94399 -1.42734 -0.621091
thorax 1.8581 -0.782499 0.379578
lowerneck -3.88435 2.7816 2.99127
upperneck -5.70345 3.43383 1.78202
head -1.08615 1.52337 0.0644842
rclavicle -3.43028e-014 -1.78906e-015
rhumerus -41.0674 -18.7673 -75.2636
rradius 19.8509
rwrist 15.4461
rhand -15.7137 -9.08635
rfingers 7.12502
rthumb 10.4763 -38.8053
lclavicle -3.43028e-014 -1.78906e-015
lhumerus -23.3554 -2.18011 87.4528
lradius 31.052
lwrist 18.6488
lhand -19.2576 13.3242
lfingers 7.12502
lthumb 7.05651 43.1866
rfemur -45.0759 4.06187 17.0268
rtibia 35.7944
rfoot -18.5709 -18.5814
rtoes 2.15179
lfemur 24.6355 12.8394 -21.485
ltibia -2.22639e-014
lfoot -17.1999 14.9603
ltoes -23.1515
